<svg width="1914" height="990" viewBox="0 0 1914 990" fill="none" xmlns="http://www.w3.org/2000/svg">
<rect x="0.25" y="0.25" width="65.5" height="65.5" fill="white" stroke="#F9F9F9" stroke-width="0.5"/>
<rect x="66.25" y="0.25" width="65.5" height="65.5" fill="white" stroke="#F9F9F9" stroke-width="0.5"/>
<rect x="132.25" y="0.25" width="65.5" height="65.5" fill="white" stroke="#F9F9F9" stroke-width="0.5"/>
<rect x="198.25" y="0.25" width="65.5" height="65.5" fill="white" stroke="#F9F9F9" stroke-width="0.5"/>
<rect x="264.25" y="0.25" width="65.5" height="65.5" fill="#F7F8FA" stroke="#F9F9F9" stroke-width="0.5"/>
<rect x="330.25" y="0.25" width="65.5" height="65.5" fill="white" stroke="#F9F9F9" stroke-width="0.5"/>
<rect x="396.25" y="0.25" width="65.5" height="65.5" fill="white" stroke="#F9F9F9" stroke-width="0.5"/>
<rect x="462.25" y="0.25" width="65.5" height="65.5" fill="white" stroke="#F9F9F9" stroke-width="0.5"/>
<rect x="528.25" y="0.25" width="65.5" height="65.5" fill="white" stroke="#F9F9F9" stroke-width="0.5"/>
<rect x="594.25" y="0.25" width="65.5" height="65.5" fill="white" stroke="#F9F9F9" stroke-width="0.5"/>
<rect x="660.25" y="0.25" width="65.5" height="65.5" fill="white" stroke="#F9F9F9" stroke-width="0.5"/>
<rect x="726.25" y="0.25" width="65.5" height="65.5" fill="#F7F8FA" stroke="#F9F9F9" stroke-width="0.5"/>
<rect x="792.25" y="0.25" width="65.5" height="65.5" fill="white" stroke="#F9F9F9" stroke-width="0.5"/>
<rect x="858.25" y="0.25" width="65.5" height="65.5" fill="white" stroke="#F9F9F9" stroke-width="0.5"/>
<rect x="924.25" y="0.25" width="65.5" height="65.5" fill="white" stroke="#F9F9F9" stroke-width="0.5"/>
<rect x="990.25" y="0.25" width="65.5" height="65.5" fill="white" stroke="#F9F9F9" stroke-width="0.5"/>
<rect x="1056.25" y="0.25" width="65.5" height="65.5" fill="#F7F8FA" stroke="#F9F9F9" stroke-width="0.5"/>
<rect x="1122.25" y="0.25" width="65.5" height="65.5" fill="white" stroke="#F9F9F9" stroke-width="0.5"/>
<rect x="1188.25" y="0.25" width="65.5" height="65.5" fill="white" stroke="#F9F9F9" stroke-width="0.5"/>
<rect x="1254.25" y="0.25" width="65.5" height="65.5" fill="white" stroke="#F9F9F9" stroke-width="0.5"/>
<rect x="1320.25" y="0.25" width="65.5" height="65.5" fill="white" stroke="#F9F9F9" stroke-width="0.5"/>
<rect x="1386.25" y="0.25" width="65.5" height="65.5" fill="white" stroke="#F9F9F9" stroke-width="0.5"/>
<rect x="1452.25" y="0.25" width="65.5" height="65.5" fill="#F7F8FA" stroke="#F9F9F9" stroke-width="0.5"/>
<rect x="1518.25" y="0.25" width="65.5" height="65.5" fill="white" stroke="#F9F9F9" stroke-width="0.5"/>
<rect x="1584.25" y="0.25" width="65.5" height="65.5" fill="white" stroke="#F9F9F9" stroke-width="0.5"/>
<rect x="1650.25" y="0.25" width="65.5" height="65.5" fill="white" stroke="#F9F9F9" stroke-width="0.5"/>
<rect x="1716.25" y="0.25" width="65.5" height="65.5" fill="white" stroke="#F9F9F9" stroke-width="0.5"/>
<rect x="1782.25" y="0.25" width="65.5" height="65.5" fill="white" stroke="#F9F9F9" stroke-width="0.5"/>
<rect x="1848.25" y="0.25" width="65.5" height="65.5" fill="white" stroke="#F9F9F9" stroke-width="0.5"/>
<rect x="0.25" y="66.25" width="65.5" height="65.5" fill="white" stroke="#F9F9F9" stroke-width="0.5"/>
<rect x="66.25" y="66.25" width="65.5" height="65.5" fill="white" stroke="#F9F9F9" stroke-width="0.5"/>
<rect x="132.25" y="66.25" width="65.5" height="65.5" fill="white" stroke="#F9F9F9" stroke-width="0.5"/>
<rect x="198.25" y="66.25" width="65.5" height="65.5" fill="white" stroke="#F9F9F9" stroke-width="0.5"/>
<rect x="264.25" y="66.25" width="65.5" height="65.5" fill="white" stroke="#F9F9F9" stroke-width="0.5"/>
<rect x="330.25" y="66.25" width="65.5" height="65.5" fill="white" stroke="#F9F9F9" stroke-width="0.5"/>
<rect x="396.25" y="66.25" width="65.5" height="65.5" fill="white" stroke="#F9F9F9" stroke-width="0.5"/>
<rect x="462.25" y="66.25" width="65.5" height="65.5" fill="white" stroke="#F9F9F9" stroke-width="0.5"/>
<rect x="528.25" y="66.25" width="65.5" height="65.5" fill="white" stroke="#F9F9F9" stroke-width="0.5"/>
<rect x="594.25" y="66.25" width="65.5" height="65.5" fill="white" stroke="#F9F9F9" stroke-width="0.5"/>
<rect x="660.25" y="66.25" width="65.5" height="65.5" fill="white" stroke="#F9F9F9" stroke-width="0.5"/>
<rect x="726.25" y="66.25" width="65.5" height="65.5" fill="white" stroke="#F9F9F9" stroke-width="0.5"/>
<rect x="792.25" y="66.25" width="65.5" height="65.5" fill="white" stroke="#F9F9F9" stroke-width="0.5"/>
<rect x="858.25" y="66.25" width="65.5" height="65.5" fill="white" stroke="#F9F9F9" stroke-width="0.5"/>
<rect x="924.25" y="66.25" width="65.5" height="65.5" fill="white" stroke="#F9F9F9" stroke-width="0.5"/>
<rect x="990.25" y="66.25" width="65.5" height="65.5" fill="white" stroke="#F9F9F9" stroke-width="0.5"/>
<rect x="1056.25" y="66.25" width="65.5" height="65.5" fill="white" stroke="#F9F9F9" stroke-width="0.5"/>
<rect x="1122.25" y="66.25" width="65.5" height="65.5" fill="white" stroke="#F9F9F9" stroke-width="0.5"/>
<rect x="1188.25" y="66.25" width="65.5" height="65.5" fill="white" stroke="#F9F9F9" stroke-width="0.5"/>
<rect x="1254.25" y="66.25" width="65.5" height="65.5" fill="white" stroke="#F9F9F9" stroke-width="0.5"/>
<rect x="1320.25" y="66.25" width="65.5" height="65.5" fill="white" stroke="#F9F9F9" stroke-width="0.5"/>
<rect x="1386.25" y="66.25" width="65.5" height="65.5" fill="white" stroke="#F9F9F9" stroke-width="0.5"/>
<rect x="1452.25" y="66.25" width="65.5" height="65.5" fill="white" stroke="#F9F9F9" stroke-width="0.5"/>
<rect x="1518.25" y="66.25" width="65.5" height="65.5" fill="white" stroke="#F9F9F9" stroke-width="0.5"/>
<rect x="1584.25" y="66.25" width="65.5" height="65.5" fill="white" stroke="#F9F9F9" stroke-width="0.5"/>
<rect x="1650.25" y="66.25" width="65.5" height="65.5" fill="white" stroke="#F9F9F9" stroke-width="0.5"/>
<rect x="1716.25" y="66.25" width="65.5" height="65.5" fill="white" stroke="#F9F9F9" stroke-width="0.5"/>
<rect x="1782.25" y="66.25" width="65.5" height="65.5" fill="white" stroke="#F9F9F9" stroke-width="0.5"/>
<rect x="1848.25" y="66.25" width="65.5" height="65.5" fill="white" stroke="#F9F9F9" stroke-width="0.5"/>
<rect x="0.25" y="132.25" width="65.5" height="65.5" fill="white" stroke="#F9F9F9" stroke-width="0.5"/>
<rect x="66.25" y="132.25" width="65.5" height="65.5" fill="#F7F8FA" stroke="#F9F9F9" stroke-width="0.5"/>
<rect x="132.25" y="132.25" width="65.5" height="65.5" fill="white" stroke="#F9F9F9" stroke-width="0.5"/>
<rect x="198.25" y="132.25" width="65.5" height="65.5" fill="white" stroke="#F9F9F9" stroke-width="0.5"/>
<rect x="264.25" y="132.25" width="65.5" height="65.5" fill="white" stroke="#F9F9F9" stroke-width="0.5"/>
<rect x="330.25" y="132.25" width="65.5" height="65.5" fill="white" stroke="#F9F9F9" stroke-width="0.5"/>
<rect x="396.25" y="132.25" width="65.5" height="65.5" fill="white" stroke="#F9F9F9" stroke-width="0.5"/>
<rect x="462.25" y="132.25" width="65.5" height="65.5" fill="white" stroke="#F9F9F9" stroke-width="0.5"/>
<rect x="528.25" y="132.25" width="65.5" height="65.5" fill="white" stroke="#F9F9F9" stroke-width="0.5"/>
<rect x="594.25" y="132.25" width="65.5" height="65.5" fill="white" stroke="#F9F9F9" stroke-width="0.5"/>
<rect x="660.25" y="132.25" width="65.5" height="65.5" fill="white" stroke="#F9F9F9" stroke-width="0.5"/>
<rect x="726.25" y="132.25" width="65.5" height="65.5" fill="white" stroke="#F9F9F9" stroke-width="0.5"/>
<rect x="792.25" y="132.25" width="65.5" height="65.5" fill="white" stroke="#F9F9F9" stroke-width="0.5"/>
<rect x="858.25" y="132.25" width="65.5" height="65.5" fill="white" stroke="#F9F9F9" stroke-width="0.5"/>
<rect x="924.25" y="132.25" width="65.5" height="65.5" fill="white" stroke="#F9F9F9" stroke-width="0.5"/>
<rect x="990.25" y="132.25" width="65.5" height="65.5" fill="white" stroke="#F9F9F9" stroke-width="0.5"/>
<rect x="1056.25" y="132.25" width="65.5" height="65.5" fill="white" stroke="#F9F9F9" stroke-width="0.5"/>
<rect x="1122.25" y="132.25" width="65.5" height="65.5" fill="white" stroke="#F9F9F9" stroke-width="0.5"/>
<rect x="1188.25" y="132.25" width="65.5" height="65.5" fill="white" stroke="#F9F9F9" stroke-width="0.5"/>
<rect x="1254.25" y="132.25" width="65.5" height="65.5" fill="white" stroke="#F9F9F9" stroke-width="0.5"/>
<rect x="1320.25" y="132.25" width="65.5" height="65.5" fill="white" stroke="#F9F9F9" stroke-width="0.5"/>
<rect x="1386.25" y="132.25" width="65.5" height="65.5" fill="white" stroke="#F9F9F9" stroke-width="0.5"/>
<rect x="1452.25" y="132.25" width="65.5" height="65.5" fill="white" stroke="#F9F9F9" stroke-width="0.5"/>
<rect x="1518.25" y="132.25" width="65.5" height="65.5" fill="white" stroke="#F9F9F9" stroke-width="0.5"/>
<rect x="1584.25" y="132.25" width="65.5" height="65.5" fill="white" stroke="#F9F9F9" stroke-width="0.5"/>
<rect x="1650.25" y="132.25" width="65.5" height="65.5" fill="white" stroke="#F9F9F9" stroke-width="0.5"/>
<rect x="1716.25" y="132.25" width="65.5" height="65.5" fill="white" stroke="#F9F9F9" stroke-width="0.5"/>
<rect x="1782.25" y="132.25" width="65.5" height="65.5" fill="#F7F8FA" stroke="#F9F9F9" stroke-width="0.5"/>
<rect x="1848.25" y="132.25" width="65.5" height="65.5" fill="white" stroke="#F9F9F9" stroke-width="0.5"/>
<rect x="0.25" y="198.25" width="65.5" height="65.5" fill="white" stroke="#F9F9F9" stroke-width="0.5"/>
<rect x="66.25" y="198.25" width="65.5" height="65.5" fill="white" stroke="#F9F9F9" stroke-width="0.5"/>
<rect x="132.25" y="198.25" width="65.5" height="65.5" fill="white" stroke="#F9F9F9" stroke-width="0.5"/>
<rect x="198.25" y="198.25" width="65.5" height="65.5" fill="white" stroke="#F9F9F9" stroke-width="0.5"/>
<rect x="264.25" y="198.25" width="65.5" height="65.5" fill="white" stroke="#F9F9F9" stroke-width="0.5"/>
<rect x="330.25" y="198.25" width="65.5" height="65.5" fill="white" stroke="#F9F9F9" stroke-width="0.5"/>
<rect x="396.25" y="198.25" width="65.5" height="65.5" fill="white" stroke="#F9F9F9" stroke-width="0.5"/>
<rect x="462.25" y="198.25" width="65.5" height="65.5" fill="white" stroke="#F9F9F9" stroke-width="0.5"/>
<rect x="528.25" y="198.25" width="65.5" height="65.5" fill="white" stroke="#F9F9F9" stroke-width="0.5"/>
<rect x="594.25" y="198.25" width="65.5" height="65.5" fill="white" stroke="#F9F9F9" stroke-width="0.5"/>
<rect x="660.25" y="198.25" width="65.5" height="65.5" fill="white" stroke="#F9F9F9" stroke-width="0.5"/>
<rect x="726.25" y="198.25" width="65.5" height="65.5" fill="white" stroke="#F9F9F9" stroke-width="0.5"/>
<rect x="792.25" y="198.25" width="65.5" height="65.5" fill="white" stroke="#F9F9F9" stroke-width="0.5"/>
<rect x="858.25" y="198.25" width="65.5" height="65.5" fill="white" stroke="#F9F9F9" stroke-width="0.5"/>
<rect x="924.25" y="198.25" width="65.5" height="65.5" fill="white" stroke="#F9F9F9" stroke-width="0.5"/>
<rect x="990.25" y="198.25" width="65.5" height="65.5" fill="white" stroke="#F9F9F9" stroke-width="0.5"/>
<rect x="1056.25" y="198.25" width="65.5" height="65.5" fill="white" stroke="#F9F9F9" stroke-width="0.5"/>
<rect x="1122.25" y="198.25" width="65.5" height="65.5" fill="white" stroke="#F9F9F9" stroke-width="0.5"/>
<rect x="1188.25" y="198.25" width="65.5" height="65.5" fill="white" stroke="#F9F9F9" stroke-width="0.5"/>
<rect x="1254.25" y="198.25" width="65.5" height="65.5" fill="white" stroke="#F9F9F9" stroke-width="0.5"/>
<rect x="1320.25" y="198.25" width="65.5" height="65.5" fill="white" stroke="#F9F9F9" stroke-width="0.5"/>
<rect x="1386.25" y="198.25" width="65.5" height="65.5" fill="white" stroke="#F9F9F9" stroke-width="0.5"/>
<rect x="1452.25" y="198.25" width="65.5" height="65.5" fill="white" stroke="#F9F9F9" stroke-width="0.5"/>
<rect x="1518.25" y="198.25" width="65.5" height="65.5" fill="white" stroke="#F9F9F9" stroke-width="0.5"/>
<rect x="1584.25" y="198.25" width="65.5" height="65.5" fill="white" stroke="#F9F9F9" stroke-width="0.5"/>
<rect x="1650.25" y="198.25" width="65.5" height="65.5" fill="white" stroke="#F9F9F9" stroke-width="0.5"/>
<rect x="1716.25" y="198.25" width="65.5" height="65.5" fill="white" stroke="#F9F9F9" stroke-width="0.5"/>
<rect x="1782.25" y="198.25" width="65.5" height="65.5" fill="white" stroke="#F9F9F9" stroke-width="0.5"/>
<rect x="1848.25" y="198.25" width="65.5" height="65.5" fill="white" stroke="#F9F9F9" stroke-width="0.5"/>
<rect x="0.25" y="264.25" width="65.5" height="65.5" fill="white" stroke="#F9F9F9" stroke-width="0.5"/>
<rect x="66.25" y="264.25" width="65.5" height="65.5" fill="white" stroke="#F9F9F9" stroke-width="0.5"/>
<rect x="132.25" y="264.25" width="65.5" height="65.5" fill="white" stroke="#F9F9F9" stroke-width="0.5"/>
<rect x="198.25" y="264.25" width="65.5" height="65.5" fill="white" stroke="#F9F9F9" stroke-width="0.5"/>
<rect x="264.25" y="264.25" width="65.5" height="65.5" fill="white" stroke="#F9F9F9" stroke-width="0.5"/>
<rect x="330.25" y="264.25" width="65.5" height="65.5" fill="white" stroke="#F9F9F9" stroke-width="0.5"/>
<rect x="396.25" y="264.25" width="65.5" height="65.5" fill="white" stroke="#F9F9F9" stroke-width="0.5"/>
<rect x="462.25" y="264.25" width="65.5" height="65.5" fill="white" stroke="#F9F9F9" stroke-width="0.5"/>
<rect x="528.25" y="264.25" width="65.5" height="65.5" fill="white" stroke="#F9F9F9" stroke-width="0.5"/>
<rect x="594.25" y="264.25" width="65.5" height="65.5" fill="white" stroke="#F9F9F9" stroke-width="0.5"/>
<rect x="660.25" y="264.25" width="65.5" height="65.5" fill="white" stroke="#F9F9F9" stroke-width="0.5"/>
<rect x="726.25" y="264.25" width="65.5" height="65.5" fill="white" stroke="#F9F9F9" stroke-width="0.5"/>
<rect x="792.25" y="264.25" width="65.5" height="65.5" fill="white" stroke="#F9F9F9" stroke-width="0.5"/>
<rect x="858.25" y="264.25" width="65.5" height="65.5" fill="white" stroke="#F9F9F9" stroke-width="0.5"/>
<rect x="924.25" y="264.25" width="65.5" height="65.5" fill="white" stroke="#F9F9F9" stroke-width="0.5"/>
<rect x="990.25" y="264.25" width="65.5" height="65.5" fill="white" stroke="#F9F9F9" stroke-width="0.5"/>
<rect x="1056.25" y="264.25" width="65.5" height="65.5" fill="#F7F8FA" stroke="#F9F9F9" stroke-width="0.5"/>
<rect x="1122.25" y="264.25" width="65.5" height="65.5" fill="white" stroke="#F9F9F9" stroke-width="0.5"/>
<rect x="1188.25" y="264.25" width="65.5" height="65.5" fill="white" stroke="#F9F9F9" stroke-width="0.5"/>
<rect x="1254.25" y="264.25" width="65.5" height="65.5" fill="white" stroke="#F9F9F9" stroke-width="0.5"/>
<rect x="1320.25" y="264.25" width="65.5" height="65.5" fill="white" stroke="#F9F9F9" stroke-width="0.5"/>
<rect x="1386.25" y="264.25" width="65.5" height="65.5" fill="white" stroke="#F9F9F9" stroke-width="0.5"/>
<rect x="1452.25" y="264.25" width="65.5" height="65.5" fill="white" stroke="#F9F9F9" stroke-width="0.5"/>
<rect x="1518.25" y="264.25" width="65.5" height="65.5" fill="white" stroke="#F9F9F9" stroke-width="0.5"/>
<rect x="1584.25" y="264.25" width="65.5" height="65.5" fill="white" stroke="#F9F9F9" stroke-width="0.5"/>
<rect x="1650.25" y="264.25" width="65.5" height="65.5" fill="white" stroke="#F9F9F9" stroke-width="0.5"/>
<rect x="1716.25" y="264.25" width="65.5" height="65.5" fill="white" stroke="#F9F9F9" stroke-width="0.5"/>
<rect x="1782.25" y="264.25" width="65.5" height="65.5" fill="white" stroke="#F9F9F9" stroke-width="0.5"/>
<rect x="1848.25" y="264.25" width="65.5" height="65.5" fill="white" stroke="#F9F9F9" stroke-width="0.5"/>
<rect x="0.25" y="330.25" width="65.5" height="65.5" fill="white" stroke="#F9F9F9" stroke-width="0.5"/>
<rect x="66.25" y="330.25" width="65.5" height="65.5" fill="white" stroke="#F9F9F9" stroke-width="0.5"/>
<rect x="132.25" y="330.25" width="65.5" height="65.5" fill="white" stroke="#F9F9F9" stroke-width="0.5"/>
<rect x="198.25" y="330.25" width="65.5" height="65.5" fill="white" stroke="#F9F9F9" stroke-width="0.5"/>
<rect x="264.25" y="330.25" width="65.5" height="65.5" fill="white" stroke="#F9F9F9" stroke-width="0.5"/>
<rect x="330.25" y="330.25" width="65.5" height="65.5" fill="white" stroke="#F9F9F9" stroke-width="0.5"/>
<rect x="396.25" y="330.25" width="65.5" height="65.5" fill="white" stroke="#F9F9F9" stroke-width="0.5"/>
<rect x="462.25" y="330.25" width="65.5" height="65.5" fill="white" stroke="#F9F9F9" stroke-width="0.5"/>
<rect x="528.25" y="330.25" width="65.5" height="65.5" fill="white" stroke="#F9F9F9" stroke-width="0.5"/>
<rect x="594.25" y="330.25" width="65.5" height="65.5" fill="#F7F8FA" stroke="#F9F9F9" stroke-width="0.5"/>
<rect x="660.25" y="330.25" width="65.5" height="65.5" fill="white" stroke="#F9F9F9" stroke-width="0.5"/>
<rect x="726.25" y="330.25" width="65.5" height="65.5" fill="white" stroke="#F9F9F9" stroke-width="0.5"/>
<rect x="792.25" y="330.25" width="65.5" height="65.5" fill="white" stroke="#F9F9F9" stroke-width="0.5"/>
<rect x="858.25" y="330.25" width="65.5" height="65.5" fill="white" stroke="#F9F9F9" stroke-width="0.5"/>
<rect x="924.25" y="330.25" width="65.5" height="65.5" fill="white" stroke="#F9F9F9" stroke-width="0.5"/>
<rect x="990.25" y="330.25" width="65.5" height="65.5" fill="white" stroke="#F9F9F9" stroke-width="0.5"/>
<rect x="1056.25" y="330.25" width="65.5" height="65.5" fill="white" stroke="#F9F9F9" stroke-width="0.5"/>
<rect x="1122.25" y="330.25" width="65.5" height="65.5" fill="white" stroke="#F9F9F9" stroke-width="0.5"/>
<rect x="1188.25" y="330.25" width="65.5" height="65.5" fill="white" stroke="#F9F9F9" stroke-width="0.5"/>
<rect x="1254.25" y="330.25" width="65.5" height="65.5" fill="white" stroke="#F9F9F9" stroke-width="0.5"/>
<rect x="1320.25" y="330.25" width="65.5" height="65.5" fill="white" stroke="#F9F9F9" stroke-width="0.5"/>
<rect x="1386.25" y="330.25" width="65.5" height="65.5" fill="white" stroke="#F9F9F9" stroke-width="0.5"/>
<rect x="1452.25" y="330.25" width="65.5" height="65.5" fill="white" stroke="#F9F9F9" stroke-width="0.5"/>
<rect x="1518.25" y="330.25" width="65.5" height="65.5" fill="white" stroke="#F9F9F9" stroke-width="0.5"/>
<rect x="1584.25" y="330.25" width="65.5" height="65.5" fill="white" stroke="#F9F9F9" stroke-width="0.5"/>
<rect x="1650.25" y="330.25" width="65.5" height="65.5" fill="white" stroke="#F9F9F9" stroke-width="0.5"/>
<rect x="1716.25" y="330.25" width="65.5" height="65.5" fill="white" stroke="#F9F9F9" stroke-width="0.5"/>
<rect x="1782.25" y="330.25" width="65.5" height="65.5" fill="white" stroke="#F9F9F9" stroke-width="0.5"/>
<rect x="1848.25" y="330.25" width="65.5" height="65.5" fill="white" stroke="#F9F9F9" stroke-width="0.5"/>
<rect x="0.25" y="396.25" width="65.5" height="65.5" fill="white" stroke="#F9F9F9" stroke-width="0.5"/>
<rect x="66.25" y="396.25" width="65.5" height="65.5" fill="white" stroke="#F9F9F9" stroke-width="0.5"/>
<rect x="132.25" y="396.25" width="65.5" height="65.5" fill="white" stroke="#F9F9F9" stroke-width="0.5"/>
<rect x="198.25" y="396.25" width="65.5" height="65.5" fill="white" stroke="#F9F9F9" stroke-width="0.5"/>
<rect x="264.25" y="396.25" width="65.5" height="65.5" fill="white" stroke="#F9F9F9" stroke-width="0.5"/>
<rect x="330.25" y="396.25" width="65.5" height="65.5" fill="white" stroke="#F9F9F9" stroke-width="0.5"/>
<rect x="396.25" y="396.25" width="65.5" height="65.5" fill="white" stroke="#F9F9F9" stroke-width="0.5"/>
<rect x="462.25" y="396.25" width="65.5" height="65.5" fill="white" stroke="#F9F9F9" stroke-width="0.5"/>
<rect x="528.25" y="396.25" width="65.5" height="65.5" fill="white" stroke="#F9F9F9" stroke-width="0.5"/>
<rect x="594.25" y="396.25" width="65.5" height="65.5" fill="white" stroke="#F9F9F9" stroke-width="0.5"/>
<rect x="660.25" y="396.25" width="65.5" height="65.5" fill="white" stroke="#F9F9F9" stroke-width="0.5"/>
<rect x="726.25" y="396.25" width="65.5" height="65.5" fill="white" stroke="#F9F9F9" stroke-width="0.5"/>
<rect x="792.25" y="396.25" width="65.5" height="65.5" fill="white" stroke="#F9F9F9" stroke-width="0.5"/>
<rect x="858.25" y="396.25" width="65.5" height="65.5" fill="white" stroke="#F9F9F9" stroke-width="0.5"/>
<rect x="924.25" y="396.25" width="65.5" height="65.5" fill="white" stroke="#F9F9F9" stroke-width="0.5"/>
<rect x="990.25" y="396.25" width="65.5" height="65.5" fill="white" stroke="#F9F9F9" stroke-width="0.5"/>
<rect x="1056.25" y="396.25" width="65.5" height="65.5" fill="white" stroke="#F9F9F9" stroke-width="0.5"/>
<rect x="1122.25" y="396.25" width="65.5" height="65.5" fill="white" stroke="#F9F9F9" stroke-width="0.5"/>
<rect x="1188.25" y="396.25" width="65.5" height="65.5" fill="white" stroke="#F9F9F9" stroke-width="0.5"/>
<rect x="1254.25" y="396.25" width="65.5" height="65.5" fill="white" stroke="#F9F9F9" stroke-width="0.5"/>
<rect x="1320.25" y="396.25" width="65.5" height="65.5" fill="white" stroke="#F9F9F9" stroke-width="0.5"/>
<rect x="1386.25" y="396.25" width="65.5" height="65.5" fill="white" stroke="#F9F9F9" stroke-width="0.5"/>
<rect x="1452.25" y="396.25" width="65.5" height="65.5" fill="white" stroke="#F9F9F9" stroke-width="0.5"/>
<rect x="1518.25" y="396.25" width="65.5" height="65.5" fill="white" stroke="#F9F9F9" stroke-width="0.5"/>
<rect x="1584.25" y="396.25" width="65.5" height="65.5" fill="white" stroke="#F9F9F9" stroke-width="0.5"/>
<rect x="1650.25" y="396.25" width="65.5" height="65.5" fill="white" stroke="#F9F9F9" stroke-width="0.5"/>
<rect x="1716.25" y="396.25" width="65.5" height="65.5" fill="white" stroke="#F9F9F9" stroke-width="0.5"/>
<rect x="1782.25" y="396.25" width="65.5" height="65.5" fill="white" stroke="#F9F9F9" stroke-width="0.5"/>
<rect x="1848.25" y="396.25" width="65.5" height="65.5" fill="white" stroke="#F9F9F9" stroke-width="0.5"/>
<rect x="0.25" y="462.25" width="65.5" height="65.5" fill="#F7F8FA" stroke="#F9F9F9" stroke-width="0.5"/>
<rect x="66.25" y="462.25" width="65.5" height="65.5" fill="white" stroke="#F9F9F9" stroke-width="0.5"/>
<rect x="132.25" y="462.25" width="65.5" height="65.5" fill="white" stroke="#F9F9F9" stroke-width="0.5"/>
<rect x="198.25" y="462.25" width="65.5" height="65.5" fill="white" stroke="#F9F9F9" stroke-width="0.5"/>
<rect x="264.25" y="462.25" width="65.5" height="65.5" fill="white" stroke="#F9F9F9" stroke-width="0.5"/>
<rect x="330.25" y="462.25" width="65.5" height="65.5" fill="white" stroke="#F9F9F9" stroke-width="0.5"/>
<rect x="396.25" y="462.25" width="65.5" height="65.5" fill="white" stroke="#F9F9F9" stroke-width="0.5"/>
<rect x="462.25" y="462.25" width="65.5" height="65.5" fill="white" stroke="#F9F9F9" stroke-width="0.5"/>
<rect x="528.25" y="462.25" width="65.5" height="65.5" fill="white" stroke="#F9F9F9" stroke-width="0.5"/>
<rect x="594.25" y="462.25" width="65.5" height="65.5" fill="white" stroke="#F9F9F9" stroke-width="0.5"/>
<rect x="660.25" y="462.25" width="65.5" height="65.5" fill="white" stroke="#F9F9F9" stroke-width="0.5"/>
<rect x="726.25" y="462.25" width="65.5" height="65.5" fill="white" stroke="#F9F9F9" stroke-width="0.5"/>
<rect x="792.25" y="462.25" width="65.5" height="65.5" fill="white" stroke="#F9F9F9" stroke-width="0.5"/>
<rect x="858.25" y="462.25" width="65.5" height="65.5" fill="white" stroke="#F9F9F9" stroke-width="0.5"/>
<rect x="924.25" y="462.25" width="65.5" height="65.5" fill="white" stroke="#F9F9F9" stroke-width="0.5"/>
<rect x="990.25" y="462.25" width="65.5" height="65.5" fill="white" stroke="#F9F9F9" stroke-width="0.5"/>
<rect x="1056.25" y="462.25" width="65.5" height="65.5" fill="white" stroke="#F9F9F9" stroke-width="0.5"/>
<rect x="1122.25" y="462.25" width="65.5" height="65.5" fill="white" stroke="#F9F9F9" stroke-width="0.5"/>
<rect x="1188.25" y="462.25" width="65.5" height="65.5" fill="white" stroke="#F9F9F9" stroke-width="0.5"/>
<rect x="1254.25" y="462.25" width="65.5" height="65.5" fill="white" stroke="#F9F9F9" stroke-width="0.5"/>
<rect x="1320.25" y="462.25" width="65.5" height="65.5" fill="white" stroke="#F9F9F9" stroke-width="0.5"/>
<rect x="1386.25" y="462.25" width="65.5" height="65.5" fill="white" stroke="#F9F9F9" stroke-width="0.5"/>
<rect x="1452.25" y="462.25" width="65.5" height="65.5" fill="white" stroke="#F9F9F9" stroke-width="0.5"/>
<rect x="1518.25" y="462.25" width="65.5" height="65.5" fill="white" stroke="#F9F9F9" stroke-width="0.5"/>
<rect x="1584.25" y="462.25" width="65.5" height="65.5" fill="white" stroke="#F9F9F9" stroke-width="0.5"/>
<rect x="1650.25" y="462.25" width="65.5" height="65.5" fill="white" stroke="#F9F9F9" stroke-width="0.5"/>
<rect x="1716.25" y="462.25" width="65.5" height="65.5" fill="white" stroke="#F9F9F9" stroke-width="0.5"/>
<rect x="1782.25" y="462.25" width="65.5" height="65.5" fill="white" stroke="#F9F9F9" stroke-width="0.5"/>
<rect x="1848.25" y="462.25" width="65.5" height="65.5" fill="white" stroke="#F9F9F9" stroke-width="0.5"/>
<rect x="0.25" y="528.25" width="65.5" height="65.5" fill="white" stroke="#F9F9F9" stroke-width="0.5"/>
<rect x="66.25" y="528.25" width="65.5" height="65.5" fill="white" stroke="#F9F9F9" stroke-width="0.5"/>
<rect x="132.25" y="528.25" width="65.5" height="65.5" fill="white" stroke="#F9F9F9" stroke-width="0.5"/>
<rect x="198.25" y="528.25" width="65.5" height="65.5" fill="white" stroke="#F9F9F9" stroke-width="0.5"/>
<rect x="264.25" y="528.25" width="65.5" height="65.5" fill="white" stroke="#F9F9F9" stroke-width="0.5"/>
<rect x="330.25" y="528.25" width="65.5" height="65.5" fill="white" stroke="#F9F9F9" stroke-width="0.5"/>
<rect x="396.25" y="528.25" width="65.5" height="65.5" fill="white" stroke="#F9F9F9" stroke-width="0.5"/>
<rect x="462.25" y="528.25" width="65.5" height="65.5" fill="white" stroke="#F9F9F9" stroke-width="0.5"/>
<rect x="528.25" y="528.25" width="65.5" height="65.5" fill="white" stroke="#F9F9F9" stroke-width="0.5"/>
<rect x="594.25" y="528.25" width="65.5" height="65.5" fill="#F7F8FA" stroke="#F9F9F9" stroke-width="0.5"/>
<rect x="660.25" y="528.25" width="65.5" height="65.5" fill="white" stroke="#F9F9F9" stroke-width="0.5"/>
<rect x="726.25" y="528.25" width="65.5" height="65.5" fill="white" stroke="#F9F9F9" stroke-width="0.5"/>
<rect x="792.25" y="528.25" width="65.5" height="65.5" fill="white" stroke="#F9F9F9" stroke-width="0.5"/>
<rect x="858.25" y="528.25" width="65.5" height="65.5" fill="white" stroke="#F9F9F9" stroke-width="0.5"/>
<rect x="924.25" y="528.25" width="65.5" height="65.5" fill="white" stroke="#F9F9F9" stroke-width="0.5"/>
<rect x="990.25" y="528.25" width="65.5" height="65.5" fill="white" stroke="#F9F9F9" stroke-width="0.5"/>
<rect x="1056.25" y="528.25" width="65.5" height="65.5" fill="white" stroke="#F9F9F9" stroke-width="0.5"/>
<rect x="1122.25" y="528.25" width="65.5" height="65.5" fill="white" stroke="#F9F9F9" stroke-width="0.5"/>
<rect x="1188.25" y="528.25" width="65.5" height="65.5" fill="white" stroke="#F9F9F9" stroke-width="0.5"/>
<rect x="1254.25" y="528.25" width="65.5" height="65.5" fill="white" stroke="#F9F9F9" stroke-width="0.5"/>
<rect x="1320.25" y="528.25" width="65.5" height="65.5" fill="white" stroke="#F9F9F9" stroke-width="0.5"/>
<rect x="1386.25" y="528.25" width="65.5" height="65.5" fill="white" stroke="#F9F9F9" stroke-width="0.5"/>
<rect x="1452.25" y="528.25" width="65.5" height="65.5" fill="white" stroke="#F9F9F9" stroke-width="0.5"/>
<rect x="1518.25" y="528.25" width="65.5" height="65.5" fill="white" stroke="#F9F9F9" stroke-width="0.5"/>
<rect x="1584.25" y="528.25" width="65.5" height="65.5" fill="white" stroke="#F9F9F9" stroke-width="0.5"/>
<rect x="1650.25" y="528.25" width="65.5" height="65.5" fill="white" stroke="#F9F9F9" stroke-width="0.5"/>
<rect x="1716.25" y="528.25" width="65.5" height="65.5" fill="white" stroke="#F9F9F9" stroke-width="0.5"/>
<rect x="1782.25" y="528.25" width="65.5" height="65.5" fill="white" stroke="#F9F9F9" stroke-width="0.5"/>
<rect x="1848.25" y="528.25" width="65.5" height="65.5" fill="#F7F8FA" stroke="#F9F9F9" stroke-width="0.5"/>
<rect x="0.25" y="594.25" width="65.5" height="65.5" fill="white" stroke="#F9F9F9" stroke-width="0.5"/>
<rect x="66.25" y="594.25" width="65.5" height="65.5" fill="white" stroke="#F9F9F9" stroke-width="0.5"/>
<rect x="132.25" y="594.25" width="65.5" height="65.5" fill="white" stroke="#F9F9F9" stroke-width="0.5"/>
<rect x="198.25" y="594.25" width="65.5" height="65.5" fill="white" stroke="#F9F9F9" stroke-width="0.5"/>
<rect x="264.25" y="594.25" width="65.5" height="65.5" fill="white" stroke="#F9F9F9" stroke-width="0.5"/>
<rect x="330.25" y="594.25" width="65.5" height="65.5" fill="white" stroke="#F9F9F9" stroke-width="0.5"/>
<rect x="396.25" y="594.25" width="65.5" height="65.5" fill="white" stroke="#F9F9F9" stroke-width="0.5"/>
<rect x="462.25" y="594.25" width="65.5" height="65.5" fill="white" stroke="#F9F9F9" stroke-width="0.5"/>
<rect x="528.25" y="594.25" width="65.5" height="65.5" fill="white" stroke="#F9F9F9" stroke-width="0.5"/>
<rect x="594.25" y="594.25" width="65.5" height="65.5" fill="white" stroke="#F9F9F9" stroke-width="0.5"/>
<rect x="660.25" y="594.25" width="65.5" height="65.5" fill="white" stroke="#F9F9F9" stroke-width="0.5"/>
<rect x="726.25" y="594.25" width="65.5" height="65.5" fill="white" stroke="#F9F9F9" stroke-width="0.5"/>
<rect x="792.25" y="594.25" width="65.5" height="65.5" fill="white" stroke="#F9F9F9" stroke-width="0.5"/>
<rect x="858.25" y="594.25" width="65.5" height="65.5" fill="white" stroke="#F9F9F9" stroke-width="0.5"/>
<rect x="924.25" y="594.25" width="65.5" height="65.5" fill="white" stroke="#F9F9F9" stroke-width="0.5"/>
<rect x="990.25" y="594.25" width="65.5" height="65.5" fill="white" stroke="#F9F9F9" stroke-width="0.5"/>
<rect x="1056.25" y="594.25" width="65.5" height="65.5" fill="white" stroke="#F9F9F9" stroke-width="0.5"/>
<rect x="1122.25" y="594.25" width="65.5" height="65.5" fill="white" stroke="#F9F9F9" stroke-width="0.5"/>
<rect x="1188.25" y="594.25" width="65.5" height="65.5" fill="white" stroke="#F9F9F9" stroke-width="0.5"/>
<rect x="1254.25" y="594.25" width="65.5" height="65.5" fill="white" stroke="#F9F9F9" stroke-width="0.5"/>
<rect x="1320.25" y="594.25" width="65.5" height="65.5" fill="white" stroke="#F9F9F9" stroke-width="0.5"/>
<rect x="1386.25" y="594.25" width="65.5" height="65.5" fill="white" stroke="#F9F9F9" stroke-width="0.5"/>
<rect x="1452.25" y="594.25" width="65.5" height="65.5" fill="white" stroke="#F9F9F9" stroke-width="0.5"/>
<rect x="1518.25" y="594.25" width="65.5" height="65.5" fill="white" stroke="#F9F9F9" stroke-width="0.5"/>
<rect x="1584.25" y="594.25" width="65.5" height="65.5" fill="white" stroke="#F9F9F9" stroke-width="0.5"/>
<rect x="1650.25" y="594.25" width="65.5" height="65.5" fill="white" stroke="#F9F9F9" stroke-width="0.5"/>
<rect x="1716.25" y="594.25" width="65.5" height="65.5" fill="white" stroke="#F9F9F9" stroke-width="0.5"/>
<rect x="1782.25" y="594.25" width="65.5" height="65.5" fill="white" stroke="#F9F9F9" stroke-width="0.5"/>
<rect x="1848.25" y="594.25" width="65.5" height="65.5" fill="white" stroke="#F9F9F9" stroke-width="0.5"/>
<rect x="0.25" y="660.25" width="65.5" height="65.5" fill="white" stroke="#F9F9F9" stroke-width="0.5"/>
<rect x="66.25" y="660.25" width="65.5" height="65.5" fill="white" stroke="#F9F9F9" stroke-width="0.5"/>
<rect x="132.25" y="660.25" width="65.5" height="65.5" fill="white" stroke="#F9F9F9" stroke-width="0.5"/>
<rect x="198.25" y="660.25" width="65.5" height="65.5" fill="white" stroke="#F9F9F9" stroke-width="0.5"/>
<rect x="264.25" y="660.25" width="65.5" height="65.5" fill="white" stroke="#F9F9F9" stroke-width="0.5"/>
<rect x="330.25" y="660.25" width="65.5" height="65.5" fill="white" stroke="#F9F9F9" stroke-width="0.5"/>
<rect x="396.25" y="660.25" width="65.5" height="65.5" fill="white" stroke="#F9F9F9" stroke-width="0.5"/>
<rect x="462.25" y="660.25" width="65.5" height="65.5" fill="white" stroke="#F9F9F9" stroke-width="0.5"/>
<rect x="528.25" y="660.25" width="65.5" height="65.5" fill="white" stroke="#F9F9F9" stroke-width="0.5"/>
<rect x="594.25" y="660.25" width="65.5" height="65.5" fill="white" stroke="#F9F9F9" stroke-width="0.5"/>
<rect x="660.25" y="660.25" width="65.5" height="65.5" fill="white" stroke="#F9F9F9" stroke-width="0.5"/>
<rect x="726.25" y="660.25" width="65.5" height="65.5" fill="white" stroke="#F9F9F9" stroke-width="0.5"/>
<rect x="792.25" y="660.25" width="65.5" height="65.5" fill="white" stroke="#F9F9F9" stroke-width="0.5"/>
<rect x="858.25" y="660.25" width="65.5" height="65.5" fill="white" stroke="#F9F9F9" stroke-width="0.5"/>
<rect x="924.25" y="660.25" width="65.5" height="65.5" fill="white" stroke="#F9F9F9" stroke-width="0.5"/>
<rect x="990.25" y="660.25" width="65.5" height="65.5" fill="white" stroke="#F9F9F9" stroke-width="0.5"/>
<rect x="1056.25" y="660.25" width="65.5" height="65.5" fill="white" stroke="#F9F9F9" stroke-width="0.5"/>
<rect x="1122.25" y="660.25" width="65.5" height="65.5" fill="white" stroke="#F9F9F9" stroke-width="0.5"/>
<rect x="1188.25" y="660.25" width="65.5" height="65.5" fill="white" stroke="#F9F9F9" stroke-width="0.5"/>
<rect x="1254.25" y="660.25" width="65.5" height="65.5" fill="white" stroke="#F9F9F9" stroke-width="0.5"/>
<rect x="1320.25" y="660.25" width="65.5" height="65.5" fill="white" stroke="#F9F9F9" stroke-width="0.5"/>
<rect x="1386.25" y="660.25" width="65.5" height="65.5" fill="white" stroke="#F9F9F9" stroke-width="0.5"/>
<rect x="1452.25" y="660.25" width="65.5" height="65.5" fill="white" stroke="#F9F9F9" stroke-width="0.5"/>
<rect x="1518.25" y="660.25" width="65.5" height="65.5" fill="white" stroke="#F9F9F9" stroke-width="0.5"/>
<rect x="1584.25" y="660.25" width="65.5" height="65.5" fill="white" stroke="#F9F9F9" stroke-width="0.5"/>
<rect x="1650.25" y="660.25" width="65.5" height="65.5" fill="white" stroke="#F9F9F9" stroke-width="0.5"/>
<rect x="1716.25" y="660.25" width="65.5" height="65.5" fill="white" stroke="#F9F9F9" stroke-width="0.5"/>
<rect x="1782.25" y="660.25" width="65.5" height="65.5" fill="white" stroke="#F9F9F9" stroke-width="0.5"/>
<rect x="1848.25" y="660.25" width="65.5" height="65.5" fill="white" stroke="#F9F9F9" stroke-width="0.5"/>
<rect x="0.25" y="726.25" width="65.5" height="65.5" fill="white" stroke="#F9F9F9" stroke-width="0.5"/>
<rect x="66.25" y="726.25" width="65.5" height="65.5" fill="white" stroke="#F9F9F9" stroke-width="0.5"/>
<rect x="132.25" y="726.25" width="65.5" height="65.5" fill="white" stroke="#F9F9F9" stroke-width="0.5"/>
<rect x="198.25" y="726.25" width="65.5" height="65.5" fill="#F7F8FA" stroke="#F9F9F9" stroke-width="0.5"/>
<rect x="264.25" y="726.25" width="65.5" height="65.5" fill="white" stroke="#F9F9F9" stroke-width="0.5"/>
<rect x="330.25" y="726.25" width="65.5" height="65.5" fill="white" stroke="#F9F9F9" stroke-width="0.5"/>
<rect x="396.25" y="726.25" width="65.5" height="65.5" fill="white" stroke="#F9F9F9" stroke-width="0.5"/>
<rect x="462.25" y="726.25" width="65.5" height="65.5" fill="white" stroke="#F9F9F9" stroke-width="0.5"/>
<rect x="528.25" y="726.25" width="65.5" height="65.5" fill="#F7F8FA" stroke="#F9F9F9" stroke-width="0.5"/>
<rect x="594.25" y="726.25" width="65.5" height="65.5" fill="white" stroke="#F9F9F9" stroke-width="0.5"/>
<rect x="660.25" y="726.25" width="65.5" height="65.5" fill="white" stroke="#F9F9F9" stroke-width="0.5"/>
<rect x="726.25" y="726.25" width="65.5" height="65.5" fill="white" stroke="#F9F9F9" stroke-width="0.5"/>
<rect x="792.25" y="726.25" width="65.5" height="65.5" fill="white" stroke="#F9F9F9" stroke-width="0.5"/>
<rect x="858.25" y="726.25" width="65.5" height="65.5" fill="white" stroke="#F9F9F9" stroke-width="0.5"/>
<rect x="924.25" y="726.25" width="65.5" height="65.5" fill="white" stroke="#F9F9F9" stroke-width="0.5"/>
<rect x="990.25" y="726.25" width="65.5" height="65.5" fill="white" stroke="#F9F9F9" stroke-width="0.5"/>
<rect x="1056.25" y="726.25" width="65.5" height="65.5" fill="white" stroke="#F9F9F9" stroke-width="0.5"/>
<rect x="1122.25" y="726.25" width="65.5" height="65.5" fill="white" stroke="#F9F9F9" stroke-width="0.5"/>
<rect x="1188.25" y="726.25" width="65.5" height="65.5" fill="white" stroke="#F9F9F9" stroke-width="0.5"/>
<rect x="1254.25" y="726.25" width="65.5" height="65.5" fill="white" stroke="#F9F9F9" stroke-width="0.5"/>
<rect x="1320.25" y="726.25" width="65.5" height="65.5" fill="white" stroke="#F9F9F9" stroke-width="0.5"/>
<rect x="1386.25" y="726.25" width="65.5" height="65.5" fill="white" stroke="#F9F9F9" stroke-width="0.5"/>
<rect x="1452.25" y="726.25" width="65.5" height="65.5" fill="white" stroke="#F9F9F9" stroke-width="0.5"/>
<rect x="1518.25" y="726.25" width="65.5" height="65.5" fill="#F7F8FA" stroke="#F9F9F9" stroke-width="0.5"/>
<rect x="1584.25" y="726.25" width="65.5" height="65.5" fill="white" stroke="#F9F9F9" stroke-width="0.5"/>
<rect x="1650.25" y="726.25" width="65.5" height="65.5" fill="white" stroke="#F9F9F9" stroke-width="0.5"/>
<rect x="1716.25" y="726.25" width="65.5" height="65.5" fill="white" stroke="#F9F9F9" stroke-width="0.5"/>
<rect x="1782.25" y="726.25" width="65.5" height="65.5" fill="white" stroke="#F9F9F9" stroke-width="0.5"/>
<rect x="1848.25" y="726.25" width="65.5" height="65.5" fill="white" stroke="#F9F9F9" stroke-width="0.5"/>
<rect x="0.25" y="792.25" width="65.5" height="65.5" fill="white" stroke="#F9F9F9" stroke-width="0.5"/>
<rect x="66.25" y="792.25" width="65.5" height="65.5" fill="white" stroke="#F9F9F9" stroke-width="0.5"/>
<rect x="132.25" y="792.25" width="65.5" height="65.5" fill="white" stroke="#F9F9F9" stroke-width="0.5"/>
<rect x="198.25" y="792.25" width="65.5" height="65.5" fill="white" stroke="#F9F9F9" stroke-width="0.5"/>
<rect x="264.25" y="792.25" width="65.5" height="65.5" fill="white" stroke="#F9F9F9" stroke-width="0.5"/>
<rect x="330.25" y="792.25" width="65.5" height="65.5" fill="white" stroke="#F9F9F9" stroke-width="0.5"/>
<rect x="396.25" y="792.25" width="65.5" height="65.5" fill="white" stroke="#F9F9F9" stroke-width="0.5"/>
<rect x="462.25" y="792.25" width="65.5" height="65.5" fill="white" stroke="#F9F9F9" stroke-width="0.5"/>
<rect x="528.25" y="792.25" width="65.5" height="65.5" fill="white" stroke="#F9F9F9" stroke-width="0.5"/>
<rect x="594.25" y="792.25" width="65.5" height="65.5" fill="white" stroke="#F9F9F9" stroke-width="0.5"/>
<rect x="660.25" y="792.25" width="65.5" height="65.5" fill="white" stroke="#F9F9F9" stroke-width="0.5"/>
<rect x="726.25" y="792.25" width="65.5" height="65.5" fill="white" stroke="#F9F9F9" stroke-width="0.5"/>
<rect x="792.25" y="792.25" width="65.5" height="65.5" fill="white" stroke="#F9F9F9" stroke-width="0.5"/>
<rect x="858.25" y="792.25" width="65.5" height="65.5" fill="white" stroke="#F9F9F9" stroke-width="0.5"/>
<rect x="924.25" y="792.25" width="65.5" height="65.5" fill="white" stroke="#F9F9F9" stroke-width="0.5"/>
<rect x="990.25" y="792.25" width="65.5" height="65.5" fill="white" stroke="#F9F9F9" stroke-width="0.5"/>
<rect x="1056.25" y="792.25" width="65.5" height="65.5" fill="#F7F8FA" stroke="#F9F9F9" stroke-width="0.5"/>
<rect x="1122.25" y="792.25" width="65.5" height="65.5" fill="white" stroke="#F9F9F9" stroke-width="0.5"/>
<rect x="1188.25" y="792.25" width="65.5" height="65.5" fill="white" stroke="#F9F9F9" stroke-width="0.5"/>
<rect x="1254.25" y="792.25" width="65.5" height="65.5" fill="white" stroke="#F9F9F9" stroke-width="0.5"/>
<rect x="1320.25" y="792.25" width="65.5" height="65.5" fill="white" stroke="#F9F9F9" stroke-width="0.5"/>
<rect x="1386.25" y="792.25" width="65.5" height="65.5" fill="white" stroke="#F9F9F9" stroke-width="0.5"/>
<rect x="1452.25" y="792.25" width="65.5" height="65.5" fill="white" stroke="#F9F9F9" stroke-width="0.5"/>
<rect x="1518.25" y="792.25" width="65.5" height="65.5" fill="white" stroke="#F9F9F9" stroke-width="0.5"/>
<rect x="1584.25" y="792.25" width="65.5" height="65.5" fill="white" stroke="#F9F9F9" stroke-width="0.5"/>
<rect x="1650.25" y="792.25" width="65.5" height="65.5" fill="white" stroke="#F9F9F9" stroke-width="0.5"/>
<rect x="1716.25" y="792.25" width="65.5" height="65.5" fill="white" stroke="#F9F9F9" stroke-width="0.5"/>
<rect x="1782.25" y="792.25" width="65.5" height="65.5" fill="white" stroke="#F9F9F9" stroke-width="0.5"/>
<rect x="1848.25" y="792.25" width="65.5" height="65.5" fill="#F7F8FA" stroke="#F9F9F9" stroke-width="0.5"/>
<rect x="0.25" y="858.25" width="65.5" height="65.5" fill="white" stroke="#F9F9F9" stroke-width="0.5"/>
<rect x="66.25" y="858.25" width="65.5" height="65.5" fill="white" stroke="#F9F9F9" stroke-width="0.5"/>
<rect x="132.25" y="858.25" width="65.5" height="65.5" fill="white" stroke="#F9F9F9" stroke-width="0.5"/>
<rect x="198.25" y="858.25" width="65.5" height="65.5" fill="white" stroke="#F9F9F9" stroke-width="0.5"/>
<rect x="264.25" y="858.25" width="65.5" height="65.5" fill="white" stroke="#F9F9F9" stroke-width="0.5"/>
<rect x="330.25" y="858.25" width="65.5" height="65.5" fill="white" stroke="#F9F9F9" stroke-width="0.5"/>
<rect x="396.25" y="858.25" width="65.5" height="65.5" fill="white" stroke="#F9F9F9" stroke-width="0.5"/>
<rect x="462.25" y="858.25" width="65.5" height="65.5" fill="white" stroke="#F9F9F9" stroke-width="0.5"/>
<rect x="528.25" y="858.25" width="65.5" height="65.5" fill="white" stroke="#F9F9F9" stroke-width="0.5"/>
<rect x="594.25" y="858.25" width="65.5" height="65.5" fill="white" stroke="#F9F9F9" stroke-width="0.5"/>
<rect x="660.25" y="858.25" width="65.5" height="65.5" fill="white" stroke="#F9F9F9" stroke-width="0.5"/>
<rect x="726.25" y="858.25" width="65.5" height="65.5" fill="white" stroke="#F9F9F9" stroke-width="0.5"/>
<rect x="792.25" y="858.25" width="65.5" height="65.5" fill="white" stroke="#F9F9F9" stroke-width="0.5"/>
<rect x="858.25" y="858.25" width="65.5" height="65.5" fill="white" stroke="#F9F9F9" stroke-width="0.5"/>
<rect x="924.25" y="858.25" width="65.5" height="65.5" fill="white" stroke="#F9F9F9" stroke-width="0.5"/>
<rect x="990.25" y="858.25" width="65.5" height="65.5" fill="white" stroke="#F9F9F9" stroke-width="0.5"/>
<rect x="1056.25" y="858.25" width="65.5" height="65.5" fill="white" stroke="#F9F9F9" stroke-width="0.5"/>
<rect x="1122.25" y="858.25" width="65.5" height="65.5" fill="white" stroke="#F9F9F9" stroke-width="0.5"/>
<rect x="1188.25" y="858.25" width="65.5" height="65.5" fill="white" stroke="#F9F9F9" stroke-width="0.5"/>
<rect x="1254.25" y="858.25" width="65.5" height="65.5" fill="white" stroke="#F9F9F9" stroke-width="0.5"/>
<rect x="1320.25" y="858.25" width="65.5" height="65.5" fill="white" stroke="#F9F9F9" stroke-width="0.5"/>
<rect x="1386.25" y="858.25" width="65.5" height="65.5" fill="white" stroke="#F9F9F9" stroke-width="0.5"/>
<rect x="1452.25" y="858.25" width="65.5" height="65.5" fill="white" stroke="#F9F9F9" stroke-width="0.5"/>
<rect x="1518.25" y="858.25" width="65.5" height="65.5" fill="white" stroke="#F9F9F9" stroke-width="0.5"/>
<rect x="1584.25" y="858.25" width="65.5" height="65.5" fill="white" stroke="#F9F9F9" stroke-width="0.5"/>
<rect x="1650.25" y="858.25" width="65.5" height="65.5" fill="white" stroke="#F9F9F9" stroke-width="0.5"/>
<rect x="1716.25" y="858.25" width="65.5" height="65.5" fill="white" stroke="#F9F9F9" stroke-width="0.5"/>
<rect x="1782.25" y="858.25" width="65.5" height="65.5" fill="white" stroke="#F9F9F9" stroke-width="0.5"/>
<rect x="1848.25" y="858.25" width="65.5" height="65.5" fill="white" stroke="#F9F9F9" stroke-width="0.5"/>
<rect x="0.25" y="924.25" width="65.5" height="65.5" fill="white" stroke="#F9F9F9" stroke-width="0.5"/>
<rect x="66.25" y="924.25" width="65.5" height="65.5" fill="white" stroke="#F9F9F9" stroke-width="0.5"/>
<rect x="132.25" y="924.25" width="65.5" height="65.5" fill="white" stroke="#F9F9F9" stroke-width="0.5"/>
<rect x="198.25" y="924.25" width="65.5" height="65.5" fill="white" stroke="#F9F9F9" stroke-width="0.5"/>
<rect x="264.25" y="924.25" width="65.5" height="65.5" fill="white" stroke="#F9F9F9" stroke-width="0.5"/>
<rect x="330.25" y="924.25" width="65.5" height="65.5" fill="white" stroke="#F9F9F9" stroke-width="0.5"/>
<rect x="396.25" y="924.25" width="65.5" height="65.5" fill="white" stroke="#F9F9F9" stroke-width="0.5"/>
<rect x="462.25" y="924.25" width="65.5" height="65.5" fill="white" stroke="#F9F9F9" stroke-width="0.5"/>
<rect x="528.25" y="924.25" width="65.5" height="65.5" fill="white" stroke="#F9F9F9" stroke-width="0.5"/>
<rect x="594.25" y="924.25" width="65.5" height="65.5" fill="white" stroke="#F9F9F9" stroke-width="0.5"/>
<rect x="660.25" y="924.25" width="65.5" height="65.5" fill="white" stroke="#F9F9F9" stroke-width="0.5"/>
<rect x="726.25" y="924.25" width="65.5" height="65.5" fill="white" stroke="#F9F9F9" stroke-width="0.5"/>
<rect x="792.25" y="924.25" width="65.5" height="65.5" fill="white" stroke="#F9F9F9" stroke-width="0.5"/>
<rect x="858.25" y="924.25" width="65.5" height="65.5" fill="white" stroke="#F9F9F9" stroke-width="0.5"/>
<rect x="924.25" y="924.25" width="65.5" height="65.5" fill="white" stroke="#F9F9F9" stroke-width="0.5"/>
<rect x="990.25" y="924.25" width="65.5" height="65.5" fill="white" stroke="#F9F9F9" stroke-width="0.5"/>
<rect x="1056.25" y="924.25" width="65.5" height="65.5" fill="white" stroke="#F9F9F9" stroke-width="0.5"/>
<rect x="1122.25" y="924.25" width="65.5" height="65.5" fill="white" stroke="#F9F9F9" stroke-width="0.5"/>
<rect x="1188.25" y="924.25" width="65.5" height="65.5" fill="white" stroke="#F9F9F9" stroke-width="0.5"/>
<rect x="1254.25" y="924.25" width="65.5" height="65.5" fill="white" stroke="#F9F9F9" stroke-width="0.5"/>
<rect x="1320.25" y="924.25" width="65.5" height="65.5" fill="white" stroke="#F9F9F9" stroke-width="0.5"/>
<rect x="1386.25" y="924.25" width="65.5" height="65.5" fill="white" stroke="#F9F9F9" stroke-width="0.5"/>
<rect x="1452.25" y="924.25" width="65.5" height="65.5" fill="white" stroke="#F9F9F9" stroke-width="0.5"/>
<rect x="1518.25" y="924.25" width="65.5" height="65.5" fill="white" stroke="#F9F9F9" stroke-width="0.5"/>
<rect x="1584.25" y="924.25" width="65.5" height="65.5" fill="white" stroke="#F9F9F9" stroke-width="0.5"/>
<rect x="1650.25" y="924.25" width="65.5" height="65.5" fill="white" stroke="#F9F9F9" stroke-width="0.5"/>
<rect x="1716.25" y="924.25" width="65.5" height="65.5" fill="white" stroke="#F9F9F9" stroke-width="0.5"/>
<rect x="1782.25" y="924.25" width="65.5" height="65.5" fill="white" stroke="#F9F9F9" stroke-width="0.5"/>
<rect x="1848.25" y="924.25" width="65.5" height="65.5" fill="white" stroke="#F9F9F9" stroke-width="0.5"/>
</svg>
